<svg width="1088" height="320" viewBox="0 0 1088 320" fill="none" xmlns="http://www.w3.org/2000/svg">
<g clip-path="url(#clip0_591_834)">
<path d="M383.134 320.5C385.934 304.1 378.967 261.667 375.134 242.5L269.634 285.5L248.134 331.5C291.967 334.667 380.334 336.9 383.134 320.5Z" fill="#080970"/>
<path d="M342.134 232.5C256.134 230.5 160.134 270 124.134 289.5C40.1336 332 96.6338 375.5 213.634 335C266.231 316.793 449.634 235 342.134 232.5Z" fill="#2446BB"/>
<path d="M661.698 360.072C658.056 339.187 660.172 266.833 661.033 232L819.365 295.013L805.435 366.469C759.041 373.038 665.341 380.956 661.698 360.072Z" fill="#070868"/>
<path d="M686.36 207.566C734.957 189.297 806.533 197.151 883.838 222.354C961.144 247.557 1098.03 326 1098.03 326L897.934 358.456C867.04 353.017 794.634 335.971 752.164 311.302C699.076 280.465 620.032 232.5 686.36 207.566Z" fill="#2446BB"/>
<path fill-rule="evenodd" clip-rule="evenodd" d="M330.443 106C316.8 106.338 286.134 126.714 286.134 170.603C286.134 216.603 314.997 216.603 330.443 216.603C345.889 216.603 374.751 216.603 374.751 170.603C374.751 126.714 344.085 106.338 330.443 106Z" fill="url(#paint0_radial_591_834)"/>
<line x1="329.942" y1="166" x2="329.942" y2="243" stroke="#08096D" stroke-width="2" stroke-linecap="round"/>
<path d="M330.134 209C332.991 208.63 339.391 206.111 342.134 199" stroke="#080970" stroke-width="2" stroke-linecap="round"/>
<path d="M329.134 190C324.134 189.37 312.934 185.089 308.134 173" stroke="#080970" stroke-width="2" stroke-linecap="round"/>
<path d="M834.605 202.58C838.011 202.151 845.64 199.234 848.91 191" stroke="#080970" stroke-width="2" stroke-linecap="round"/>
<path fill-rule="evenodd" clip-rule="evenodd" d="M833.714 122C843.007 122.23 863.895 136.11 863.895 166.005C863.895 197.338 844.235 197.338 833.714 197.338C823.193 197.338 803.533 197.338 803.533 166.005C803.533 136.11 824.422 122.23 833.714 122Z" fill="url(#paint1_radial_591_834)"/>
<line x1="1" y1="-1" x2="52.8116" y2="-1" transform="matrix(4.37114e-08 1 1 -4.37114e-08 834.736 162.188)" stroke="#08096D" stroke-width="2" stroke-linecap="round"/>
<path d="M833.925 181.812C831.979 181.559 827.619 179.844 825.751 175" stroke="#080970" stroke-width="2" stroke-linecap="round"/>
<path d="M816.533 279.5C796.533 279.5 743.533 256 715.033 233.5C717.533 224 730.233 208.3 761.033 221.5C799.533 238 841.281 279.5 816.533 279.5Z" fill="#070866"/>
<circle cx="744.533" cy="192" r="51" fill="#2446BB"/>
<mask id="mask0_591_834" style="mask-type:alpha" maskUnits="userSpaceOnUse" x="693" y="141" width="103" height="102">
<circle cx="744.533" cy="192" r="51" fill="#1B33A6"/>
</mask>
<g mask="url(#mask0_591_834)">
<path d="M768.533 154C768.533 150.4 773.533 148.833 776.033 148.5L791.033 156.5L798.533 187C795.533 186.167 788.633 184.5 785.033 184.5C780.533 184.5 783.033 191 783.533 196C784.033 201 781.033 200.5 778.533 205C776.033 209.5 776.033 214.5 776.033 216.5V216.5C776.033 218.5 766.033 220 763.033 216.5C760.033 213 760.033 207 759.033 203C758.033 199 752.533 201.5 746.533 200.5C740.533 199.5 741.533 195.5 741.033 191C740.533 186.5 745.033 182.5 749.033 179.5C753.033 176.5 758.033 183.5 763.033 184.5C768.033 185.5 765.033 177.5 763.033 175C761.033 172.5 754.033 172 749.033 171C744.033 170 744.533 164.5 746.533 161C748.533 157.5 757.033 161 763.033 163C769.033 165 768.533 158.5 768.533 154Z" fill="#4B68DD"/>
<path d="M705.033 198C701.033 201.2 697.033 209.667 695.533 213.5L698.533 228.5L733.033 244.5C735.699 242.833 741.333 238.8 742.533 236C744.032 232.5 741.033 225.5 737.533 222.5C734.032 219.5 732.033 215 728.533 210C725.033 205 727.533 200.5 724.033 196C720.533 191.5 710.033 194 705.033 198Z" fill="#4B68DD"/>
<path d="M728.533 154C731.733 152.8 730.866 144.833 730.033 141L705.033 152.5C700.533 160.833 692.033 177.3 694.033 176.5C696.533 175.5 705.033 175 711.533 177.5C718.033 180 715.533 175 713.533 171C711.533 167 715.033 165.5 717.533 164.5C720.033 163.5 719.533 161 719.033 156.5C718.533 152 724.533 155.5 728.533 154Z" fill="#4B68DD"/>
</g>
<circle cx="744.533" cy="192" r="51" fill="url(#paint2_radial_591_834)"/>
<rect x="165" y="120" width="174" height="4" rx="2" transform="rotate(-30 165 120)" fill="url(#paint3_linear_591_834)" fill-opacity="0.25"/>
<rect x="550" y="187" width="174" height="4" rx="2" transform="rotate(-30 550 187)" fill="url(#paint4_linear_591_834)" fill-opacity="0.25"/>
<rect x="657" y="158" width="174" height="4" rx="2" transform="rotate(-30 657 158)" fill="url(#paint5_linear_591_834)" fill-opacity="0.25"/>
<path d="M138.5 335.5C150.9 333.5 230 311.5 252.5 276C265.376 255.685 237 244.5 207 258C183.93 268.382 127 305.667 102 324.5C109 329 126.1 337.5 138.5 335.5Z" fill="#070867"/>
<path d="M140.311 227.83C139.553 229.668 140.467 235.442 141.019 238.099L169.463 217.734C170.822 215.327 165.222 211.778 162.979 212.379C153.466 214.928 147.891 221.872 146.261 224.913C144.593 225.12 141.068 225.992 140.311 227.83Z" fill="#070867"/>
<path d="M201.148 199.146C198.583 200.699 198.183 203.186 198.304 204.236C206.557 205.872 219.441 202.66 218.766 201.638C213.911 194.283 204.355 197.205 201.148 199.146Z" fill="#070867"/>
<path d="M142.758 254.463C143.03 251.89 141.116 245.045 140.125 241.945C138.784 234.25 151.042 224.352 156.6 219.979C164.245 213.963 192.65 204.669 197.046 203.13C201.443 201.592 214.309 196.221 221.318 202.638C246.171 225.391 254.672 253.088 255.021 257.082C255.37 261.075 254.65 277.232 246.256 276.862C235.161 276.372 226.449 264.858 223.48 259.161C212.697 263.333 190.241 272.131 186.689 273.948C182.249 276.22 172.815 299.786 168.663 305.827C164.511 311.869 159.987 311.825 154.344 310.265C147.049 308.248 144.871 294.651 144.57 293.529C144.27 292.408 142.418 257.68 142.758 254.463Z" fill="url(#paint6_radial_591_834)"/>
<ellipse cx="168.449" cy="236.753" rx="7.46054" ry="8.59293" transform="rotate(-30.6383 168.449 236.753)" fill="#070867"/>
<ellipse cx="170.866" cy="235.198" rx="6.49161" ry="7.48956" transform="rotate(-30.6383 170.866 235.198)" fill="#4B68DD"/>
<ellipse cx="217.351" cy="239.759" rx="6.98461" ry="8.27324" transform="rotate(-21.8838 217.351 239.759)" fill="#070867"/>
<ellipse cx="219.892" cy="238.114" rx="6.48333" ry="7.39531" transform="rotate(-21.8838 219.892 238.114)" fill="#4B68DD"/>
<ellipse cx="189.76" cy="252.208" rx="9.40578" ry="10.2186" transform="rotate(-21.9057 189.76 252.208)" fill="#070867"/>
<ellipse cx="214.971" cy="220.119" rx="3.95414" ry="4.72301" transform="rotate(-27.2957 214.971 220.119)" fill="#070867"/>
<ellipse cx="217.975" cy="210.214" rx="3.64104" ry="4.72301" transform="rotate(-27.2957 217.975 210.214)" fill="#070867"/>
<ellipse cx="225.137" cy="225.502" rx="3.64104" ry="4.72301" transform="rotate(-23.1361 225.137 225.502)" fill="#070867"/>
<path d="M230.77 214.381C231.795 216.779 231.144 219.119 229.461 220.076C227.777 221.033 225.464 219.485 224.439 217.086C223.414 214.687 223.915 211.881 225.749 211.39C227.729 210.86 229.746 211.982 230.77 214.381Z" fill="#070867"/>
<g filter="url(#filter0_d_591_834)">
<ellipse cx="190.254" cy="215.461" rx="4.57816" ry="5.10931" transform="rotate(-27.3793 190.254 215.461)" fill="white"/>
</g>
<path d="M944.348 331L868.533 280.573L977.364 269L1027.53 323.5L944.348 331Z" fill="#080970"/>
<path fill-rule="evenodd" clip-rule="evenodd" d="M985.545 261.913C986.281 262.921 985.615 264.344 984.37 264.425L975.795 264.982L981.278 272.495C982.014 273.503 981.348 274.926 980.103 275.007L869.602 282.182C868.948 282.224 868.335 281.859 868.062 281.263L844.549 230.076C844.311 229.555 844.379 228.995 844.653 228.564L844.614 228.513L848.71 218.339L848.741 218.368C848.926 217.773 849.457 217.3 850.152 217.254L947.436 210.938C947.977 210.903 948.497 211.146 948.817 211.584L985.545 261.913ZM850.816 223.846L852.453 227.41L848.769 227.649L850.816 223.846Z" fill="url(#paint7_radial_591_834)"/>
<path fill-rule="evenodd" clip-rule="evenodd" d="M983.123 264.506L979.873 272.842L870.348 279.953L846.703 230.161L849.846 221.737L872.328 270.681C872.602 271.277 873.215 271.642 873.869 271.6L983.123 264.506Z" fill="#4B68DD"/>
<rect x="542" y="118" width="4" height="162" fill="url(#paint8_linear_591_834)"/>
<path fill-rule="evenodd" clip-rule="evenodd" d="M544.688 73.2676C544.689 73.2697 544.691 73.2715 544.693 73.273C546.993 74.7158 549.379 78.044 551.234 82.4024C553.099 86.7807 554.161 91.6055 554.151 95.6396C554.154 96.9247 554.065 98.2084 553.885 99.4808C555.287 100.775 556.28 102.152 556.842 103.581C558.821 108.626 555.874 113.543 554.511 115.429C554.442 115.525 554.365 115.616 554.281 115.7C554.068 115.908 553.815 116.07 553.536 116.175C553.257 116.279 552.96 116.325 552.663 116.308C552.366 116.291 552.076 116.212 551.811 116.077C551.546 115.941 551.312 115.752 551.124 115.521L551.117 115.513L547.654 111.204L547.51 111.32C546.986 111.744 546.332 111.975 545.658 111.973L541.859 111.972C541.185 111.973 540.531 111.742 540.007 111.318C539.987 111.302 539.966 111.285 539.945 111.268C539.916 111.245 539.887 111.221 539.856 111.195L536.389 115.511L536.382 115.519C536.174 115.774 535.91 115.978 535.61 116.114C535.311 116.25 534.984 116.316 534.655 116.305C534.326 116.295 534.004 116.208 533.714 116.053C533.424 115.897 533.174 115.677 532.983 115.409C531.633 113.529 528.697 108.597 530.652 103.568C531.217 102.128 532.215 100.746 533.626 99.4554C533.45 98.185 533.364 96.9039 533.367 95.6215C533.364 91.6061 534.456 86.7632 536.353 82.3255C538.237 77.9248 540.604 74.6202 542.847 73.2573C543.124 73.0873 543.443 72.9982 543.769 73C544.094 73.0018 544.412 73.0945 544.688 73.2676Z" fill="#080970"/>
<g filter="url(#filter1_d_591_834)">
<path fill-rule="evenodd" clip-rule="evenodd" d="M537 114.279C537.945 117.026 540.553 119 543.621 119C546.531 119 549.026 117.224 550.082 114.698L547.275 111.204L547.131 111.32C546.607 111.744 545.953 111.975 545.279 111.973L541.48 111.972C540.806 111.973 540.152 111.742 539.628 111.318C539.608 111.302 539.588 111.286 539.567 111.269L539.566 111.268C539.537 111.245 539.508 111.221 539.477 111.196L537 114.279Z" fill="white"/>
</g>
<ellipse cx="320.524" cy="280.733" rx="11.5" ry="42" transform="rotate(62.2495 320.524 280.733)" fill="#2446BB"/>
<ellipse cx="709.094" cy="279.745" rx="17.2742" ry="42" transform="rotate(132.065 709.094 279.745)" fill="#2446BB"/>
<ellipse cx="744.753" cy="315.963" rx="17.2742" ry="42" transform="rotate(132.065 744.753 315.963)" fill="#2446BB"/>
<ellipse cx="284.623" cy="310.833" rx="15.8828" ry="42" transform="rotate(45 284.623 310.833)" fill="#2446BB"/>
<circle cx="627" cy="50" r="23" fill="url(#paint9_linear_591_834)"/>
<circle cx="412" cy="33" r="14" fill="url(#paint10_linear_591_834)"/>
<path opacity="0.75" fill-rule="evenodd" clip-rule="evenodd" d="M397.785 33.5579C388.484 36.1142 382.298 38.6807 382.592 40.1109C383.013 42.1543 396.505 41.1041 412.726 37.7652C428.948 34.4263 441.758 30.0631 441.337 28.0197C441.043 26.5895 434.346 26.6747 424.792 27.9993C424.919 28.3133 425.035 28.634 425.138 28.961C427.767 28.6 430.171 28.3348 432.273 28.1711C434.981 27.9604 437.15 27.9211 438.646 28.0508C439.278 28.1056 439.747 28.1872 440.071 28.2803C439.81 28.4937 439.411 28.7541 438.853 29.0538C437.529 29.7639 435.521 30.5846 432.95 31.46C427.823 33.2064 420.608 35.122 412.525 36.7857C404.442 38.4495 397.056 39.5391 391.656 39.9594C388.949 40.1701 386.78 40.2094 385.284 40.0797C384.652 40.0249 384.183 39.9433 383.859 39.8502C384.12 39.6368 384.519 39.3765 385.077 39.0768C386.401 38.3666 388.409 37.546 390.979 36.6705C392.976 35.9904 395.289 35.2847 397.847 34.5782C397.813 34.2369 397.792 33.8966 397.785 33.5579ZM440.376 27.9694C440.377 27.9693 440.375 27.9736 440.369 27.9825C440.373 27.9739 440.376 27.9695 440.376 27.9694ZM383.456 39.685C383.456 39.6849 383.461 39.6878 383.467 39.6943C383.459 39.6884 383.455 39.6852 383.456 39.685ZM383.554 40.1611C383.553 40.1612 383.555 40.1569 383.561 40.148C383.557 40.1567 383.554 40.1611 383.554 40.1611ZM440.462 28.4363C440.471 28.4421 440.474 28.4454 440.474 28.4455C440.474 28.4456 440.469 28.4427 440.462 28.4363Z" fill="white"/>
<circle cx="434" cy="111" r="14" fill="url(#paint11_linear_591_834)"/>
<path d="M783 334.5C766.6 327.7 742.5 300.667 732.5 288C731.667 281.667 737.2 272.3 766 285.5C802 302 803.5 343 783 334.5Z" fill="#080970"/>
<path d="M731.892 285.746C731.524 280.332 734.791 268.59 736.47 263.395L771.45 269.453C773.752 274.389 773.489 289.382 772.964 290.022C767.362 296.845 757.765 297.995 750.854 297.393C744.808 296.867 732.351 292.515 731.892 285.746Z" fill="#080970"/>
<path d="M758.005 251.249C741.303 248.744 718.404 253.068 709.043 255.544L736.221 265.257L759.44 277.662L800.916 267.857C793.526 263.321 774.707 253.753 758.005 251.249Z" fill="url(#paint12_linear_591_834)"/>
<path d="M759.031 276.603C743.922 265.187 712.495 255.512 709.042 255.543L709.067 258.199C739.131 264.035 759.052 278.86 759.052 278.86C759.052 278.86 782.347 270.416 800.937 270.247L800.915 267.857C775.167 269.419 759.566 277.007 759.031 276.603Z" fill="#080970"/>
<path d="M784.267 291.646C784.564 289.306 783.638 276.07 783.138 269.745C782.507 268.467 781.411 266.68 782.076 269.755C782.742 272.829 781.772 285.029 781.204 290.744C782.101 292.02 783.969 293.986 784.267 291.646Z" fill="#2446BB"/>
<path fill-rule="evenodd" clip-rule="evenodd" d="M784.876 295.305C785.419 294.728 785.748 293.948 785.741 293.093C785.725 291.333 784.285 289.919 782.525 289.935C780.765 289.951 779.351 291.391 779.367 293.151C779.377 294.301 779.996 295.304 780.915 295.856C779.663 298.526 775.329 300.305 773.063 300.91C775.481 303.898 783.851 304.398 783.851 304.398C783.851 304.398 786.69 299.324 784.876 295.305Z" fill="#4B68DD"/>
<path d="M262 326.5C272.885 322.314 316.833 284 332.5 268C331.5 262.5 323.61 259.322 291.5 275.5C226 308.5 223 341.5 262 326.5Z" fill="#080970"/>
<path d="M293.546 259.189L290.806 252.233L298.924 238.704L311.911 242.116L314.931 249.782L293.546 259.189Z" fill="#080970"/>
<ellipse cx="305.12" cy="232" rx="10.1798" ry="15.4102" transform="rotate(-21.5004 305.12 232)" fill="#080970"/>
<rect x="299.358" y="217.707" width="5.3965" height="30.8205" transform="rotate(-21.5004 299.358 217.707)" fill="#080970"/>
<ellipse cx="309.913" cy="230.112" rx="10.1798" ry="15.4102" transform="rotate(-21.5004 309.913 230.112)" fill="url(#paint13_linear_591_834)"/>
<ellipse cx="281.158" cy="238.979" rx="12.6639" ry="17.3937" transform="rotate(-21.5004 281.158 238.979)" fill="#080970"/>
<rect x="274.641" y="222.852" width="6.71338" height="34.7875" transform="rotate(-21.5004 274.641 222.852)" fill="#080970"/>
<ellipse cx="287.12" cy="236.631" rx="12.6639" ry="17.3937" transform="rotate(-21.5004 287.12 236.631)" fill="url(#paint14_linear_591_834)"/>
<path d="M294.308 254.462L281.248 259.606L292.264 287.573L306.051 284.273L294.308 254.462Z" fill="#080970"/>
<path d="M323.835 242.83L294.166 254.518L306.051 284.273L333.957 268.525L323.835 242.83Z" fill="url(#paint15_linear_591_834)"/>
<path d="M324.102 241.332L323.559 242.465C323.318 242.967 323.297 243.546 323.501 244.063L328.157 255.882C328.371 256.425 328.812 256.848 329.363 257.039L330.521 257.44C330.931 257.582 331.376 257.587 331.789 257.454L342.803 253.907C343.902 253.553 344.474 252.345 344.051 251.27L338.519 237.228C338.114 236.2 336.953 235.695 335.925 236.1L325.173 240.336C324.703 240.521 324.321 240.876 324.102 241.332Z" fill="#080970"/>
<path d="M295.615 269.854L293.77 265.169L297.487 264.197L331.2 248.621L332.822 252.738L299.444 269.165L295.615 269.854Z" fill="#070867"/>
<path d="M326.631 249.928L293.77 265.169L297.628 264.141L331.2 248.621L326.631 249.928Z" fill="#2446BB"/>
<ellipse cx="317.266" cy="263.621" rx="2.44123" ry="2.5938" transform="rotate(-21.5004 317.266 263.621)" fill="#4B68DD"/>
<ellipse cx="319.615" cy="269.583" rx="2.44123" ry="2.5938" transform="rotate(-21.5004 319.615 269.583)" fill="#4B68DD"/>
<ellipse cx="323.951" cy="263.939" rx="2.44123" ry="2.5938" transform="rotate(-21.5004 323.951 263.939)" fill="#4B68DD"/>
<path d="M310.908 265.797L305.966 268.236L309.153 276.328L309.833 276.388L314.948 273.553L311.816 265.604L310.908 265.797Z" fill="#080970"/>
</g>
<defs>
<filter id="filter0_d_591_834" x="165.558" y="190.458" width="49.3926" height="50.0059" filterUnits="userSpaceOnUse" color-interpolation-filters="sRGB">
<feFlood flood-opacity="0" result="BackgroundImageFix"/>
<feColorMatrix in="SourceAlpha" type="matrix" values="0 0 0 0 0 0 0 0 0 0 0 0 0 0 0 0 0 0 127 0" result="hardAlpha"/>
<feMorphology radius="4" operator="dilate" in="SourceAlpha" result="effect1_dropShadow_591_834"/>
<feOffset/>
<feGaussianBlur stdDeviation="8"/>
<feComposite in2="hardAlpha" operator="out"/>
<feColorMatrix type="matrix" values="0 0 0 0 1 0 0 0 0 1 0 0 0 0 1 0 0 0 1 0"/>
<feBlend mode="normal" in2="BackgroundImageFix" result="effect1_dropShadow_591_834"/>
<feBlend mode="normal" in="SourceGraphic" in2="effect1_dropShadow_591_834" result="shape"/>
</filter>
<filter id="filter1_d_591_834" x="525" y="99.1956" width="37.082" height="31.8044" filterUnits="userSpaceOnUse" color-interpolation-filters="sRGB">
<feFlood flood-opacity="0" result="BackgroundImageFix"/>
<feColorMatrix in="SourceAlpha" type="matrix" values="0 0 0 0 0 0 0 0 0 0 0 0 0 0 0 0 0 0 127 0" result="hardAlpha"/>
<feOffset/>
<feGaussianBlur stdDeviation="6"/>
<feComposite in2="hardAlpha" operator="out"/>
<feColorMatrix type="matrix" values="0 0 0 0 1 0 0 0 0 1 0 0 0 0 1 0 0 0 1 0"/>
<feBlend mode="normal" in2="BackgroundImageFix" result="effect1_dropShadow_591_834"/>
<feBlend mode="normal" in="SourceGraphic" in2="effect1_dropShadow_591_834" result="shape"/>
</filter>
<radialGradient id="paint0_radial_591_834" cx="0" cy="0" r="1" gradientUnits="userSpaceOnUse" gradientTransform="translate(300.34 195.294) rotate(-32.0054) scale(143.591 216.448)">
<stop offset="0.220429" stop-color="#2344B9"/>
<stop offset="1" stop-color="#E57CB7"/>
</radialGradient>
<radialGradient id="paint1_radial_591_834" cx="0" cy="0" r="1" gradientUnits="userSpaceOnUse" gradientTransform="translate(854.219 182.824) rotate(-147.995) scale(97.8082 147.435)">
<stop offset="0.220429" stop-color="#2344B9"/>
<stop offset="1" stop-color="#E57CB7"/>
</radialGradient>
<radialGradient id="paint2_radial_591_834" cx="0" cy="0" r="1" gradientUnits="userSpaceOnUse" gradientTransform="translate(795.533 238) rotate(-150.305) scale(143.322 107.371)">
<stop offset="0.463542" stop-color="#E57CB7" stop-opacity="0"/>
<stop offset="0.9999" stop-color="#E57CB7"/>
<stop offset="1" stop-color="#E57CB7" stop-opacity="0"/>
</radialGradient>
<linearGradient id="paint3_linear_591_834" x1="339" y1="122" x2="165" y2="122" gradientUnits="userSpaceOnUse">
<stop stop-color="white"/>
<stop offset="1" stop-color="white" stop-opacity="0"/>
</linearGradient>
<linearGradient id="paint4_linear_591_834" x1="724" y1="189" x2="550" y2="189" gradientUnits="userSpaceOnUse">
<stop stop-color="white"/>
<stop offset="1" stop-color="white" stop-opacity="0"/>
</linearGradient>
<linearGradient id="paint5_linear_591_834" x1="831" y1="160" x2="657" y2="160" gradientUnits="userSpaceOnUse">
<stop stop-color="white"/>
<stop offset="1" stop-color="white" stop-opacity="0"/>
</linearGradient>
<radialGradient id="paint6_radial_591_834" cx="0" cy="0" r="1" gradientUnits="userSpaceOnUse" gradientTransform="translate(193.5 280.5) rotate(-49.2222) scale(105.646 114.965)">
<stop offset="0.447192" stop-color="#2446BB"/>
<stop offset="1" stop-color="#E57CB7"/>
</radialGradient>
<radialGradient id="paint7_radial_591_834" cx="0" cy="0" r="1" gradientUnits="userSpaceOnUse" gradientTransform="translate(940.495 264.168) rotate(-142.148) scale(180.443 253.35)">
<stop stop-color="#2446BB"/>
<stop offset="1" stop-color="#E57CB7"/>
</radialGradient>
<linearGradient id="paint8_linear_591_834" x1="544" y1="121.014" x2="544" y2="280" gradientUnits="userSpaceOnUse">
<stop stop-color="white"/>
<stop offset="1" stop-color="white" stop-opacity="0"/>
</linearGradient>
<linearGradient id="paint9_linear_591_834" x1="604" y1="27" x2="650" y2="73" gradientUnits="userSpaceOnUse">
<stop stop-color="#E57CB7"/>
<stop offset="1" stop-color="#E57CB7" stop-opacity="0"/>
</linearGradient>
<linearGradient id="paint10_linear_591_834" x1="398" y1="19" x2="426" y2="47" gradientUnits="userSpaceOnUse">
<stop stop-color="#E57CB7"/>
<stop offset="1" stop-color="#E57CB7" stop-opacity="0"/>
</linearGradient>
<linearGradient id="paint11_linear_591_834" x1="420" y1="97" x2="448" y2="125" gradientUnits="userSpaceOnUse">
<stop stop-color="#5370E3"/>
<stop offset="1" stop-color="#5370E3" stop-opacity="0"/>
</linearGradient>
<linearGradient id="paint12_linear_591_834" x1="725.5" y1="194" x2="766.5" y2="273" gradientUnits="userSpaceOnUse">
<stop stop-color="#E57CB7"/>
<stop offset="1" stop-color="#2446BB"/>
</linearGradient>
<linearGradient id="paint13_linear_591_834" x1="352.002" y1="229.912" x2="291.371" y2="229.674" gradientUnits="userSpaceOnUse">
<stop stop-color="#E57CB7"/>
<stop offset="1" stop-color="#2446BB"/>
</linearGradient>
<linearGradient id="paint14_linear_591_834" x1="351.099" y1="232.136" x2="272.494" y2="239.327" gradientUnits="userSpaceOnUse">
<stop stop-color="#E57CB7"/>
<stop offset="1" stop-color="#2446BB"/>
</linearGradient>
<linearGradient id="paint15_linear_591_834" x1="355.5" y1="241" x2="300" y2="266.5" gradientUnits="userSpaceOnUse">
<stop stop-color="#E57CB7"/>
<stop offset="1" stop-color="#2446BB"/>
</linearGradient>
<clipPath id="clip0_591_834">
<rect width="1088" height="320" fill="white"/>
</clipPath>
</defs>
</svg>
