<svg width="24" height="24" viewBox="0 0 24 24" fill="none" xmlns="http://www.w3.org/2000/svg">
<path d="M11.3145 23.812L3.578 19.2274C3.16916 18.9852 2.91846 18.5452 2.91846 18.0699V14.1275C2.91846 13.3844 3.52085 12.782 4.26393 12.782H19.7369C20.4799 12.782 21.0823 13.3844 21.0823 14.1275V18.0699C21.0823 18.5452 20.8316 18.9852 20.4228 19.2274L12.6863 23.812C12.2634 24.0626 11.7374 24.0626 11.3145 23.812Z" fill="url(#paint0_linear_478_624)"/>
<path d="M3.64366 12.924L11.3989 9.0464C11.7777 8.85701 12.2235 8.85701 12.6023 9.0464L20.3575 12.924C21.3492 13.4198 21.3492 14.835 20.3575 15.3309L12.6023 19.2085C12.2235 19.3979 11.7777 19.3979 11.3989 19.2085L3.64366 15.3309C2.65198 14.835 2.65198 13.4198 3.64366 12.924Z" fill="url(#paint1_linear_478_624)"/>
<path d="M15.3643 14.1991C15.3643 15.3536 13.8584 15.8093 12.0006 15.8093C10.1429 15.8093 8.63696 15.3536 8.63696 14.1991C8.63696 12.4876 10.1429 11.1001 12.0006 11.1001C13.8584 11.1001 15.3643 12.4876 15.3643 14.1991Z" fill="url(#paint2_linear_478_624)"/>
<path d="M11.3279 6.39097C11.3279 6.01943 11.6291 5.71823 12.0006 5.71823V5.71823C12.3722 5.71823 12.6734 6.01943 12.6734 6.39097V11.1001C12.6734 11.4717 12.3722 11.7729 12.0006 11.7729V11.7729C11.6291 11.7729 11.3279 11.4717 11.3279 11.1001V6.39097Z" fill="#E4E4E4"/>
<path d="M16.7096 4.70915C16.7096 7.30994 14.6012 9.4183 12.0004 9.4183C9.39962 9.4183 7.29126 7.30994 7.29126 4.70915C7.29126 2.10836 9.39962 0 12.0004 0C14.6012 0 16.7096 2.10836 16.7096 4.70915Z" fill="url(#paint3_radial_478_624)"/>
<defs>
<linearGradient id="paint0_linear_478_624" x1="2.91846" y1="16.6502" x2="12.0004" y2="21.6957" gradientUnits="userSpaceOnUse">
<stop stop-color="#4844EA"/>
<stop offset="1" stop-color="#2623CF"/>
</linearGradient>
<linearGradient id="paint1_linear_478_624" x1="7.29143" y1="11.1001" x2="16.8779" y2="16.9866" gradientUnits="userSpaceOnUse">
<stop stop-color="#5653FE"/>
<stop offset="1" stop-color="#3C38F0"/>
</linearGradient>
<linearGradient id="paint2_linear_478_624" x1="9.81425" y1="11.7729" x2="12.337" y2="14.4638" gradientUnits="userSpaceOnUse">
<stop stop-color="#4844EA"/>
<stop offset="1" stop-color="#2622CF"/>
</linearGradient>
<radialGradient id="paint3_radial_478_624" cx="0" cy="0" r="1" gradientUnits="userSpaceOnUse" gradientTransform="translate(8.63673 1.34547) rotate(45) scale(9.75177)">
<stop stop-color="#F2997B"/>
<stop offset="1" stop-color="#D55D35"/>
</radialGradient>
</defs>
</svg>
