<svg width="100" height="55" viewBox="0 0 100 55" fill="none" xmlns="http://www.w3.org/2000/svg">
<circle cx="50.4758" cy="27.5" r="27.5" fill="url(#paint0_linear_492_632)"/>
<path fill-rule="evenodd" clip-rule="evenodd" d="M23.0397 24.4142C9.73566 29.9686 1.40579 35.8341 2.44398 39.7087C4.01634 45.5768 26.4815 44.6559 52.6214 37.6517C78.7612 30.6476 98.6771 20.2126 97.1047 14.3444C96.0923 10.5661 86.4185 9.60234 72.6791 11.2647C72.8997 11.5697 73.1144 11.8799 73.3231 12.1951C76.1705 11.862 78.8336 11.6448 81.2698 11.545C85.7716 11.3604 89.4426 11.5792 92.0528 12.1798C93.3589 12.4803 94.3462 12.8647 95.0298 13.3027C95.7071 13.7367 96.0257 14.1813 96.1388 14.6033C96.2518 15.0252 96.1982 15.5696 95.8287 16.284C95.4557 17.0052 94.7928 17.8317 93.812 18.745C91.8517 20.5702 88.782 22.5952 84.791 24.6863C76.8237 28.8608 65.3831 33.197 52.3625 36.6858C39.3419 40.1747 27.266 42.1398 18.2789 42.5082C13.7771 42.6927 10.1061 42.4739 7.49584 41.8733C6.18974 41.5728 5.20245 41.1884 4.51884 40.7504C3.84163 40.3165 3.52296 39.8718 3.4099 39.4499C3.29685 39.0279 3.35049 38.4835 3.72001 37.7691C4.09302 37.048 4.75584 36.2214 5.7367 35.3081C7.69695 33.4829 10.7667 31.4579 14.7577 29.3668C17.1817 28.0968 19.9272 26.8117 22.9408 25.5402C22.9661 25.1634 22.9991 24.788 23.0397 24.4142Z" fill="white"/>
<defs>
<linearGradient id="paint0_linear_492_632" x1="31" y1="8" x2="65" y2="50" gradientUnits="userSpaceOnUse">
<stop stop-color="#FBA689"/>
<stop offset="1" stop-color="#CE5E38"/>
</linearGradient>
</defs>
</svg>
