<svg width="24" height="24" viewBox="0 0 24 24" fill="none" xmlns="http://www.w3.org/2000/svg">
<path d="M10.8797 0.643967C11.3798 -0.214655 12.6202 -0.214656 13.1203 0.643965L16.1832 5.9026C16.3664 6.21713 16.6734 6.44016 17.0291 6.5172L22.9768 7.80516C23.948 8.01545 24.3313 9.19516 23.6692 9.93612L19.6145 14.4741C19.3719 14.7455 19.2547 15.1064 19.2913 15.4685L19.9044 21.5232C20.0045 22.5118 19.001 23.2409 18.0917 22.8402L12.5228 20.3862C12.1897 20.2394 11.8103 20.2394 11.4772 20.3862L5.90833 22.8402C4.99905 23.2409 3.99553 22.5118 4.09562 21.5232L4.70865 15.4685C4.74532 15.1064 4.62806 14.7455 4.38554 14.4741L0.330763 9.93612C-0.331295 9.19516 0.0520144 8.01545 1.02315 7.80516L6.97089 6.5172C7.32664 6.44016 7.63362 6.21713 7.81681 5.9026L10.8797 0.643967Z" fill="#F2997B"/>
<path fill-rule="evenodd" clip-rule="evenodd" d="M12 0C11.5649 2.44478e-07 11.1298 0.214656 10.8797 0.643967L7.81684 5.9026C7.63364 6.21713 7.32666 6.44016 6.97092 6.5172L1.02318 7.80516C0.502473 7.91792 0.150762 8.30937 0.0385742 8.76245L12 12.6323V0Z" fill="#F8BCA0"/>
</svg>
