<svg width="21" height="28" viewBox="0 0 21 28" fill="none" xmlns="http://www.w3.org/2000/svg">
<path d="M9.70846 27.4734L0.782443 22.1839C0.310738 21.9044 0.0214844 21.3967 0.0214844 20.8484V16.2997C0.0214844 15.4424 0.716496 14.7474 1.57384 14.7474H19.4259C20.2832 14.7474 20.9782 15.4424 20.9782 16.2997V20.8484C20.9782 21.3967 20.689 21.9044 20.2173 22.1839L11.2912 27.4734C10.8033 27.7625 10.1964 27.7625 9.70846 27.4734Z" fill="url(#paint0_linear_421_1026)"/>
<path d="M0.858118 14.9112L9.80577 10.4374C10.2428 10.2189 10.7572 10.2189 11.1942 10.4374L20.1419 14.9112C21.286 15.4833 21.286 17.1161 20.1419 17.6882L11.1942 22.162C10.7572 22.3805 10.2428 22.3805 9.80577 22.162L0.858119 17.6882C-0.286039 17.1161 -0.28604 15.4833 0.858118 14.9112Z" fill="url(#paint1_linear_421_1026)"/>
<path d="M14.3809 16.3823C14.3809 17.7143 12.6434 18.2401 10.5 18.2401C8.35667 18.2401 6.61914 17.7143 6.61914 16.3823C6.61914 14.4077 8.35667 12.8069 10.5 12.8069C12.6434 12.8069 14.3809 14.4077 14.3809 16.3823Z" fill="url(#paint2_linear_421_1026)"/>
<path d="M9.72388 7.37365C9.72388 6.94498 10.0714 6.59747 10.5001 6.59747C10.9287 6.59747 11.2762 6.94498 11.2762 7.37365V12.8069C11.2762 13.2355 10.9287 13.5831 10.5001 13.5831C10.0714 13.5831 9.72388 13.2355 9.72388 12.8069V7.37365Z" fill="#E4E4E4"/>
<path d="M15.9331 5.43323C15.9331 8.43392 13.5006 10.8665 10.4999 10.8665C7.49919 10.8665 5.06665 8.43392 5.06665 5.43323C5.06665 2.43254 7.49919 0 10.4999 0C13.5006 0 15.9331 2.43254 15.9331 5.43323Z" fill="url(#paint3_radial_421_1026)"/>
<defs>
<linearGradient id="paint0_linear_421_1026" x1="0.0214842" y1="19.2104" x2="10.4999" y2="25.0317" gradientUnits="userSpaceOnUse">
<stop stop-color="#4844EA"/>
<stop offset="1" stop-color="#2623CF"/>
</linearGradient>
<linearGradient id="paint1_linear_421_1026" x1="5.06677" y1="12.8069" x2="16.1273" y2="19.5984" gradientUnits="userSpaceOnUse">
<stop stop-color="#5653FE"/>
<stop offset="1" stop-color="#3C38F0"/>
</linearGradient>
<linearGradient id="paint2_linear_421_1026" x1="7.97745" y1="13.5831" x2="10.8881" y2="16.6878" gradientUnits="userSpaceOnUse">
<stop stop-color="#4844EA"/>
<stop offset="1" stop-color="#2622CF"/>
</linearGradient>
<radialGradient id="paint3_radial_421_1026" cx="0" cy="0" r="1" gradientUnits="userSpaceOnUse" gradientTransform="translate(6.619 1.55235) rotate(45) scale(11.2512)">
<stop stop-color="#F2997B"/>
<stop offset="1" stop-color="#D55D35"/>
</radialGradient>
</defs>
</svg>
